simulation
nRows=30
nColumns=15
endheader
time  TH_x TH_y TH_z SC_y  SC_z  SC_x  AC_y  AC_z  AC_x  GH_y  GH_z  GH_x  EL_x  PS_y
0.250017  0.000000  0.000000  0.000000  -14.894740  4.900490  -4.053247  46.822349  25.063104  -0.902819  -3.636289  35.672225  -8.121247  24.662932  132.382590
0.250084  0.000000  0.000000  0.000000  -14.894740  4.900490  -1.421668  47.621871  23.131342  -2.860622  -3.636289  35.672225  -8.121247  24.662932  132.382590
0.250152  0.000000  0.000000  0.000000  -14.894740  4.900490  1.209911  48.339203  21.176103  -4.762482  -3.636289  35.672225  -8.121247  24.662932  132.382590
0.250220  0.000000  0.000000  0.000000  -14.894740  4.900490  3.841490  48.978474  19.200159  -6.614451  -3.636289  35.672225  -8.121247  24.662932  132.382590
0.250287  0.000000  0.000000  0.000000  -14.894740  4.900490  6.473069  49.543335  17.206068  -8.422251  -3.636289  35.672225  -8.121247  24.662932  132.382590
0.250355  0.000000  0.000000  0.000000  -14.894740  4.900490  9.104648  50.037038  15.196205  -10.191337  -3.636289  35.672225  -8.121247  24.662932  132.382590
0.250422  0.000000  0.000000  0.000000  -14.894740  4.900490  11.736227  50.462432  13.172783  -11.926915  -3.636289  35.672225  -8.121247  24.662932  132.382590
0.250490  0.000000  0.000000  0.000000  -14.894740  4.900490  14.367806  50.821962  11.137894  -13.633948  -3.636289  35.672225  -8.121247  24.662932  132.382590
0.250557  0.000000  0.000000  0.000000  -14.894740  4.900490  16.999385  51.117662  9.093492  -15.317212  -3.636289  35.672225  -8.121247  24.662932  132.382590
0.250625  0.000000  0.000000  0.000000  -14.894740  4.900490  19.630964  51.351258  7.041468  -16.981316  -3.636289  35.672225  -8.121247  24.662932  132.382590
0.250693  0.000000  0.000000  0.000000  -14.894740  4.900490  22.262543  51.524066  4.983612  -18.630739  -3.636289  35.672225  -8.121247  24.662932  132.382590
0.250760  0.000000  0.000000  0.000000  -14.894740  4.900490  24.894122  51.637078  2.921671  -20.269851  -3.636289  35.672225  -8.121247  24.662932  132.382590
0.250828  0.000000  0.000000  0.000000  -14.894740  4.900490  27.525701  51.690938  0.857358  -21.902944  -3.636289  35.672225  -8.121247  24.662932  132.382590
0.250895  0.000000  0.000000  0.000000  -14.894740  4.900490  30.157280  51.685950  -1.207653  -23.534277  -3.636289  35.672225  -8.121247  24.662932  132.382590
0.250963  0.000000  0.000000  0.000000  -14.894740  4.900490  32.788858  51.622086  -3.271684  -25.168091  -3.636289  35.672225  -8.121247  24.662932  132.382590
0.251030  0.000000  0.000000  0.000000  -14.894740  4.900490  35.420437  51.498984  -5.333051  -26.808646  -3.636289  35.672225  -8.121247  24.662932  132.382590
0.251098  0.000000  0.000000  0.000000  -14.894740  4.900490  38.052016  51.315942  -7.390041  -28.460250  -3.636289  35.672225  -8.121247  24.662932  132.382590
0.251166  0.000000  0.000000  0.000000  -14.894740  4.900490  40.683595  51.071916  -9.440901  -30.127286  -3.636289  35.672225  -8.121247  24.662932  132.382590
0.251233  0.000000  0.000000  0.000000  -14.894740  4.900490  43.315174  50.765515  -11.483817  -31.814250  -3.636289  35.672225  -8.121247  24.662932  132.382590
0.251301  0.000000  0.000000  0.000000  -14.894740  4.900490  45.946753  50.394971  -13.516907  -33.525784  -3.636289  35.672225  -8.121247  24.662932  132.382590
0.251368  0.000000  0.000000  0.000000  -14.520938  -9.121376  -4.053247  56.534453  26.211494  -1.737614  17.119010  16.666578  -9.501272  22.773563  123.882427
0.251436  0.000000  0.000000  0.000000  -14.520938  -9.121376  -1.421668  57.208573  24.007532  -3.325828  17.119010  16.666578  -9.501272  22.773563  123.882427
0.251503  0.000000  0.000000  0.000000  -14.520938  -9.121376  1.209911  57.805774  21.787761  -4.860333  17.119010  16.666578  -9.501272  22.773563  123.882427
0.251571  0.000000  0.000000  0.000000  -14.520938  -9.121376  3.841490  58.331010  19.554259  -6.347875  17.119010  16.666578  -9.501272  22.773563  123.882427
0.251639  0.000000  0.000000  0.000000  -14.520938  -9.121376  6.473069  58.788564  17.308911  -7.794674  17.119010  16.666578  -9.501272  22.773563  123.882427
0.251706  0.000000  0.000000  0.000000  -14.520938  -9.121376  9.104648  59.182081  15.053437  -9.206447  17.119010  16.666578  -9.501272  22.773563  123.882427
0.251774  0.000000  0.000000  0.000000  -14.520938  -9.121376  11.736227  59.514691  12.789421  -10.588583  17.119010  16.666578  -9.501272  22.773563  123.882427
0.251841  0.000000  0.000000  0.000000  -14.520938  -9.121376  14.367806  59.788979  10.518338  -11.946103  17.119010  16.666578  -9.501272  22.773563  123.882427
0.251909  0.000000  0.000000  0.000000  -14.520938  -9.121376  16.999385  60.007037  8.241564  -13.283742  17.119010  16.666578  -9.501272  22.773563  123.882427
0.251976  0.000000  0.000000  0.000000  -14.520938  -9.121376  19.630964  60.170537  5.960410  -14.606052  17.119010  16.666578  -9.501272  22.773563  123.882427
